<svg xmlns="http://www.w3.org/2000/svg" viewBox="0 0 805.3 155.7"><style type="text/css">  
	.st0{fill:#C12839;}
	.st1{fill:#EE4036;}
	.st2{fill:#F05A28;}
	.st3{fill:#F6921E;}
</style><path class="st0" d="M0 26.7c7.7-1 15.6-1.8 23.9-2.4 8.2-0.6 16-1 23.4-1 19.8 0 34.6 3.7 44.5 11.1 9.9 7.4 14.8 17.8 14.8 31.2 0 5.1-0.6 9.5-1.7 13.2 -1.1 3.8-2.5 7-4.2 9.7 -1.6 2.7-3.3 4.9-5.1 6.5 -1.8 1.6-3.3 2.9-4.4 3.9l27.9 53.4c-3.3 0.7-6.9 1.1-10.9 1.5 -4 0.3-7.9 0.5-11.6 0.5 -4.6 0-9-0.2-13.2-0.5 -4.2-0.3-7.8-0.8-10.5-1.5L45.6 94.5l3.4-2c5.7-3.3 9.6-6.7 11.8-10.4 2.1-3.7 3.2-7.6 3.2-11.9 0-4.2-1.3-7.7-3.8-10.4 -2.5-2.7-6.6-4-12.1-4 -3.1 0-5.5 0.2-7.1 0.5v96.2c-4.2 0.8-8.1 1.3-11.5 1.6s-6.5 0.4-9.1 0.4c-2.8 0-5.8-0.1-9.1-0.4 -3.3-0.2-7-0.8-11.3-1.6V26.7z"/><path class="st1" d="M126.9 111.4c0-8 1.7-14.6 5.1-19.8 3.4-5.2 7.8-9.4 13.2-12.5 5.4-3.1 11.3-5.3 17.9-6.5 6.5-1.2 12.9-1.8 19.1-1.8h14.9c-0.2-2.9-1-5.4-2.4-7.3 -1.5-2-3.3-3.5-5.6-4.5 -2.3-1.1-4.8-1.8-7.6-2.2 -2.8-0.4-5.6-0.6-8.6-0.6 -3.9 0-8.5 0.5-13.7 1.3 -5.2 0.9-10.6 2.3-16.2 4.3 -1.5-2.8-2.7-5.3-3.8-7.6 -1.1-2.3-1.9-4.6-2.4-7 -0.6-2.4-1-4.8-1.2-7.3 -0.2-2.5-0.4-5.4-0.4-8.7 7.8-2.6 15.6-4.6 23.4-5.9 7.8-1.3 14.7-2 20.9-2 8.5 0 16.2 1 23 3.1 6.9 2 12.7 5.2 17.5 9.4 4.8 4.2 8.5 9.7 11.1 16.3 2.6 6.6 3.9 14.5 3.9 23.6v71.8c-6.2 1.8-13.7 3.6-22.5 5.4 -8.8 1.8-18.1 2.7-27.9 2.7 -8.5 0-16.3-0.8-23.4-2.3 -7.1-1.5-13.2-4-18.2-7.5 -5.1-3.4-9-8-11.9-13.6C128.3 126.5 126.9 119.6 126.9 111.4zM184.7 125.1c1.5 0 3.6-0.2 6.4-0.5 2.8-0.3 4.8-0.7 6.1-1V96.7h-14c-5.7 0-10.5 1.2-14.4 3.7 -3.9 2.4-5.9 5.9-5.9 10.3 0 3.3 0.7 5.8 2.2 7.7 1.5 1.9 3.3 3.3 5.5 4.3 2.2 1 4.6 1.6 7.1 2C180.2 124.9 182.5 125.1 184.7 125.1z"/><path class="st2" d="M317.6 23.7c7.2 0 14.4 0.6 21.6 1.8 7.2 1.2 13.7 3.8 19.5 7.7 5.8 3.9 10.5 9.6 14.2 16.9 3.7 7.3 5.5 17.1 5.5 29.1v73.2c-4.2 0.8-8.1 1.3-11.5 1.6s-6.5 0.4-9.1 0.4c-2.8 0-5.9-0.1-9.3-0.4 -3.4-0.2-7.3-0.8-11.5-1.6V83.7c0-8.7-1.6-14.9-4.9-18.6 -3.3-3.8-8.2-5.6-14.9-5.6 -1.8 0-3.7 0.2-5.8 0.5 -2 0.3-3.3 0.7-3.8 1v91.6c-4.2 0.8-8.1 1.3-11.5 1.6 -3.4 0.2-6.5 0.4-9.1 0.4 -2.8 0-5.9-0.1-9.3-0.4s-7.3-0.8-11.5-1.6V32.3c5.7-2 12.7-3.9 20.8-5.8C295.2 24.7 305.4 23.7 317.6 23.7z"/><path class="st3" d="M393.5 89.6c0-9.8 1.4-18.8 4.2-26.9 2.8-8.2 6.9-15.1 12.2-20.9 5.4-5.8 12-10.3 19.8-13.6 7.8-3.3 16.8-4.9 26.9-4.9 3.4 0 6.7 0.1 9.8 0.2 3.1 0.2 6.2 0.5 9.2 1 3 0.5 6.1 1.2 9.3 2.2 3.2 1 6.7 2.2 10.7 3.7 0.3 5.6-0.2 11.1-1.5 16.5 -1.3 5.5-3.3 10.8-6.1 16 -2.8-1-5.3-1.8-7.5-2.3 -2.2-0.6-4.3-1-6.2-1.3 -2-0.3-3.9-0.5-5.8-0.6 -1.9-0.1-3.9-0.1-6-0.1 -7.8 0-14.3 2.3-19.5 7 -5.1 4.7-7.7 12.7-7.7 24.1 0 6 0.8 11.1 2.3 15.1 1.5 4 3.6 7.1 6.1 9.4 2.5 2.3 5.5 3.9 8.8 4.9 3.3 1 6.9 1.5 10.7 1.5 4.7 0 8.9-0.4 12.4-1.2 3.5-0.8 7.6-2.1 12.4-3.9 2.8 4.4 5 9.3 6.6 14.8 1.6 5.5 2.4 11.7 2.4 18.7 -7.5 2.9-14.4 4.8-20.6 5.6 -6.2 0.8-12.4 1.2-18.6 1.2 -10.4 0-19.7-1.6-27.7-4.7 -8-3.1-14.7-7.5-20.2-13.3 -5.5-5.8-9.6-12.7-12.4-20.8C394.9 108.8 393.5 99.7 393.5 89.6z"/><path class="st1" d="M597.5 106h-36.2v46.5c-4.2 0.7-8.1 1.1-11.5 1.5 -3.4 0.3-6.5 0.5-9.3 0.5 -2.8 0-5.9-0.2-9.3-0.5 -3.4-0.3-7.2-0.8-11.3-1.5V26.2c3.6-0.8 7.1-1.4 10.7-1.7 3.5-0.3 6.9-0.5 10.2-0.5 3.1 0 6.4 0.2 10 0.5 3.6 0.3 7.1 0.9 10.5 1.7v43.1h36.2V26.2c3.6-0.8 7.1-1.4 10.7-1.7 3.5-0.3 6.9-0.5 10.2-0.5 3.1 0 6.4 0.2 10 0.5 3.6 0.3 7.1 0.9 10.5 1.7v126.4c-4.2 0.7-8.1 1.1-11.5 1.5 -3.4 0.3-6.5 0.5-9.3 0.5 -2.8 0-5.9-0.2-9.3-0.5 -3.4-0.3-7.2-0.8-11.3-1.5V106z"/><path class="st0" d="M660.2 90.1c0-10 1.3-19.1 4-27.3 2.7-8.2 6.7-15.3 12-21.2 5.3-5.9 11.9-10.4 19.7-13.6 7.8-3.2 16.9-4.8 27.2-4.8 10.4 0 19.6 1.6 27.4 4.8 7.8 3.2 14.4 7.7 19.7 13.6 5.3 5.9 9.3 12.9 12 21.2 2.7 8.2 4 17.3 4 27.3 0 9.8-1.3 18.7-4 26.8 -2.7 8.1-6.7 15-12 20.8 -5.3 5.8-11.9 10.2-19.7 13.3 -7.8 3.1-17 4.7-27.4 4.7 -10.3 0-19.3-1.6-27.2-4.7 -7.8-3.1-14.4-7.5-19.7-13.3 -5.3-5.8-9.3-12.7-12-20.8C661.6 108.8 660.2 99.9 660.2 90.1zM744.5 90.1c0-10.4-1.8-18.4-5.3-24 -3.5-5.5-8.9-8.3-16-8.3 -7.2 0-12.5 2.8-15.9 8.3 -3.4 5.6-5.1 13.6-5.1 24 0 10.3 1.7 18.2 5.1 23.8 3.4 5.5 8.7 8.3 15.9 8.3 7.2 0 12.5-2.8 16-8.3C742.7 108.3 744.5 100.4 744.5 90.1z"/><path class="st0" d="M778.5 3.9h-4c-0.1-0.7-0.2-1.3-0.2-1.9 0-0.5 0.1-1.1 0.2-1.8h12.3c0.1 0.4 0.1 0.7 0.1 1 0 0.3 0 0.6 0 0.9 0 0.5-0.1 1.2-0.2 1.9h-4v13.4c-0.8 0.1-1.6 0.2-2.1 0.2 -0.6 0-1.3-0.1-2.1-0.2V3.9z"/><path class="st0" d="M789.3 0.2c0.3 0 0.7-0.1 1.1-0.1 0.4 0 0.8-0.1 1.1-0.1 0.3 0 0.7 0 1 0.1s0.7 0.1 1 0.1l3.4 8.9 3.5-8.9c0.3 0 0.6-0.1 1-0.1s0.7-0.1 1-0.1c0.3 0 0.7 0 1 0.1 0.4 0 0.7 0.1 1 0.1l0.8 17.1c-0.3 0-0.5 0.1-0.9 0.1 -0.3 0-0.7 0.1-1.2 0.1 -0.6 0-1.2-0.1-2-0.2l-0.3-9.9 -2.6 6.6c-0.3 0-0.6 0.1-0.9 0.1 -0.3 0-0.6 0-0.8 0 -0.2 0-0.5 0-0.7 0 -0.3 0-0.5-0.1-0.8-0.1l-2.4-6.5 -0.3 9.8c-0.7 0.1-1.3 0.2-1.9 0.2 -0.6 0-1.2-0.1-1.9-0.2L789.3 0.2z"/></svg>